<svg width="47" height="21" viewBox="0 0 47 21" fill="none" xmlns="http://www.w3.org/2000/svg">
<path d="M20.475 10.2812C20.475 15.9591 15.8716 20.5625 10.1937 20.5625H0.217C0.097125 20.5625 0 20.4654 0 20.3455V15.6179C0 15.498 0.097125 15.4009 0.217 15.4009H9.75625C12.5834 15.4009 14.875 13.1093 14.875 10.2821C14.875 7.455 12.5834 5.16337 9.75625 5.16337H0.217C0.097125 5.16337 0 5.06625 0 4.94637V0.217C0 0.097125 0.097125 0 0.217 0H10.1937C15.8716 0 20.475 4.60337 20.475 10.2812Z" fill="#FE4E30"/>
<path d="M46.2875 0.217V9.29687C46.2875 15.7605 41.048 21 34.5844 21C28.1207 21 22.8812 15.7605 22.8812 9.29687V0.217C22.8812 0.097125 22.9784 0 23.0982 0H28.2634C28.3832 0 28.4803 0.097125 28.4803 0.217V9.29687C28.4803 12.6674 31.213 15.4 34.5835 15.4C37.954 15.4 40.6866 12.6674 40.6866 9.29687V0.217C40.6866 0.097125 40.7837 0 40.9036 0H46.0687C46.1886 0 46.2857 0.097125 46.2857 0.217H46.2875Z" fill="#FE4E30"/>
<path d="M37.1455 0H31.9795C31.8596 0 31.7625 0.0971542 31.7625 0.217V9.6705C31.7625 9.79035 31.8596 9.8875 31.9795 9.8875H37.1455C37.2653 9.8875 37.3625 9.79035 37.3625 9.6705V0.217C37.3625 0.0971542 37.2653 0 37.1455 0Z" fill="#FE4E30"/>
</svg>
